<svg width="27" height="23" viewBox="0 0 27 23" fill="none" xmlns="http://www.w3.org/2000/svg">
<path d="M2.76074 7.92097C3.07719 7.66536 3.50634 7.52176 3.9538 7.52176C4.40127 7.52176 4.83041 7.66536 5.14686 7.92097L13.5 14.6703L21.8531 7.92097C22.1714 7.6726 22.5976 7.53517 23.0401 7.53827C23.4826 7.54138 23.9058 7.68478 24.2187 7.93758C24.5316 8.19039 24.709 8.53237 24.7129 8.88987C24.7167 9.24738 24.5466 9.5918 24.2392 9.84896L14.6931 17.5623C14.3766 17.8179 13.9475 17.9615 13.5 17.9615C13.0525 17.9615 12.6234 17.8179 12.3069 17.5623L2.76074 9.84896C2.44438 9.59327 2.26666 9.24652 2.26666 8.88497C2.26666 8.52342 2.44438 8.17667 2.76074 7.92097Z" fill="#CDE32B"/>
</svg>
